<?xml version="1.0" encoding="utf-8"?>
<!-- Generator: Adobe Illustrator 27.0.1, SVG Export Plug-In . SVG Version: 6.00 Build 0)  -->
<svg version="1.1" id="Layer_1" xmlns="http://www.w3.org/2000/svg" xmlns:xlink="http://www.w3.org/1999/xlink" x="0px" y="0px"
	 viewBox="0 0 160 80" style="enable-background:new 0 0 160 80;" xml:space="preserve">
<style type="text/css">
	.st0{fill:#FCFCFC;}
</style>
<g>
	<rect x="45" y="13" class="st0" width="7" height="8"/>
	<rect x="37" y="6" class="st0" width="8" height="7"/>
	<rect x="30" y="6" class="st0" width="7" height="7"/>
	<rect x="45" y="6" class="st0" width="7" height="7"/>
	<rect x="52" y="6" class="st0" width="8" height="7"/>
	<rect x="60" y="6" class="st0" width="8" height="7"/>
	<rect x="68" y="6" class="st0" width="8" height="7"/>
	<rect x="76" y="6" class="st0" width="7" height="7"/>
	<rect x="30" y="21" class="st0" width="7" height="7"/>
	<rect x="30" y="13" class="st0" width="7" height="8"/>
	<rect x="30" y="28" class="st0" width="7" height="8"/>
	<rect x="30" y="36" class="st0" width="7" height="8"/>
	<rect x="30" y="44" class="st0" width="7" height="7"/>
	<rect x="30" y="51" class="st0" width="7" height="8"/>
	<rect x="30" y="59" class="st0" width="7" height="7"/>
	<rect x="121" y="21" class="st0" width="8" height="7"/>
	<rect x="121" y="13" class="st0" width="8" height="8"/>
	<rect x="121" y="28" class="st0" width="8" height="8"/>
	<rect x="121" y="36" class="st0" width="8" height="8"/>
	<rect x="121" y="44" class="st0" width="8" height="7"/>
	<rect x="121" y="51" class="st0" width="8" height="8"/>
	<rect x="121" y="59" class="st0" width="8" height="7"/>
	<rect x="83" y="6" class="st0" width="8" height="7"/>
	<rect x="91" y="6" class="st0" width="8" height="7"/>
	<rect x="99" y="6" class="st0" width="8" height="7"/>
	<rect x="52" y="21" class="st0" width="8" height="7"/>
	<rect x="60" y="28" class="st0" width="8" height="8"/>
	<rect x="68" y="36" class="st0" width="8" height="8"/>
	<rect x="83" y="36" class="st0" width="8" height="8"/>
	<rect x="91" y="28" class="st0" width="8" height="8"/>
	<rect x="99" y="21" class="st0" width="8" height="7"/>
	<rect x="76" y="44" class="st0" width="7" height="7"/>
	<rect x="107" y="13" class="st0" width="8" height="8"/>
	<rect x="115" y="6" class="st0" width="6" height="7"/>
	<rect x="121" y="6" class="st0" width="8" height="7"/>
	<rect x="107" y="6" class="st0" width="8" height="7"/>
	<rect x="37" y="59" class="st0" width="8" height="7"/>
	<rect x="45" y="59" class="st0" width="7" height="7"/>
	<rect x="52" y="59" class="st0" width="8" height="7"/>
	<rect x="60" y="59" class="st0" width="8" height="7"/>
	<rect x="68" y="59" class="st0" width="8" height="7"/>
	<rect x="76" y="59" class="st0" width="7" height="7"/>
	<rect x="83" y="59" class="st0" width="8" height="7"/>
	<rect x="91" y="59" class="st0" width="8" height="7"/>
	<rect x="99" y="59" class="st0" width="8" height="7"/>
	<rect x="115" y="59" class="st0" width="6" height="7"/>
	<rect x="107" y="59" class="st0" width="8" height="7"/>
</g>
</svg>
