<?xml version="1.0" encoding="UTF-8"?>
<svg id="Layer_2" data-name="Layer 2" xmlns="http://www.w3.org/2000/svg" viewBox="0 0 36 36">
  <defs>
    <style>
      .cls-1 {
        fill: #fffdfd;
      }
    </style>
  </defs>
  <g id="_8-Bit_Social_Icons_-_With_Background" data-name="8-Bit Social Icons - With Background">
    <g>
      <polygon class="cls-1" points="20 16 18.25 16 16 16 16 18 14 18 14 20 14 22 16 22 16 24 18.25 24 20 24 20 22 22 22 22 20 22 18 20 18 20 16"/>
      <path class="cls-1" d="M34,4V2h-2V0H4V2H2v2H0v28H2v2h2v2h28v-2h2v-2h2V4h-2Zm-8,16v4h-2v2h-2v2H14v-2h-2v-2h-2v-8h2v-2h2v-2h8v2h2v2h2v4Zm3-8h-4v-4h4v4Z"/>
    </g>
  </g>
</svg>