<?xml version="1.0" encoding="UTF-8" standalone="no"?>
<svg
   xmlns:dc="http://purl.org/dc/elements/1.1/"
   xmlns:cc="http://creativecommons.org/ns#"
   xmlns:rdf="http://www.w3.org/1999/02/22-rdf-syntax-ns#"
   xmlns:svg="http://www.w3.org/2000/svg"
   xmlns="http://www.w3.org/2000/svg"
   viewBox="0 0 200 106.66667"
   height="106.66667"
   width="200"
   xml:space="preserve"
   id="svg2"
   version="1.1"><metadata
     id="metadata8"><rdf:RDF><cc:Work
         rdf:about=""><dc:format>image/svg+xml</dc:format><dc:type
           rdf:resource="http://purl.org/dc/dcmitype/StillImage" /></cc:Work></rdf:RDF></metadata><defs
     id="defs6" /><g
     transform="matrix(1.3333333,0,0,-1.3333333,0,106.66667)"
     id="g10"><g
       transform="scale(0.1)"
       id="g12"><path
         id="path14"
         style="fill:none;stroke:#040606;stroke-width:7.5;stroke-linecap:butt;stroke-linejoin:miter;stroke-miterlimit:4;stroke-dasharray:none;stroke-opacity:1"
         d="m 190.984,642.516 c -28.937,0 -59.359,-3.922 -91.2496,-12.266 -40.7188,-10.297 -66.2188,-25.016 -76.5313,-43.172 14.2344,0.985 35.8125,6.875 64.2657,17.672 28.4532,10.781 50.0472,16.672 65.2502,17.156 21.094,0.985 33.844,1.485 37.781,1.485 41.203,0 61.797,-6.375 61.797,-19.141 0,-13.234 -16.188,-28.937 -49.047,-46.594 -26.984,-14.234 -47.594,-23.062 -62.312,-26.5 -1.469,3.438 -2.454,11.282 -2.938,23.547 -0.484,9.813 -3.437,17.172 -9.312,22.563 -6.391,-4.407 -9.329,-14.719 -9.813,-29.922 -0.5,-22.563 -1.484,-34.344 -1.969,-35.813 -4.906,-3.437 -10.297,-9.812 -16.672,-18.14 -7.359,-9.813 -11.2965,-16.688 -11.2965,-21.094 12.7655,3.922 21.5935,7.344 26.9845,10.297 l 1.969,-141.281 c 1.953,-12.266 3.922,-24.532 5.39,-36.797 3.922,-14.719 10.797,-22.078 20.61,-22.563 4.406,5.391 6.859,12.75 6.859,22.063 0,3.937 -1.469,10.797 -3.922,20.609 -3.437,12.266 -5.39,19.625 -5.89,22.078 v 151.094 c 36.312,20.109 60.343,33.859 72.125,40.719 41.687,25.015 62.296,45.14 62.296,60.828 0,28.953 -27.953,43.172 -84.375,43.172 z m 154.239,81.437 c -5.391,-5.39 -12.266,-10.297 -21.578,-15.703 -10.797,-6.375 -19.141,-9.312 -24.532,-9.312 -0.5,0 -5.406,2.453 -14.718,6.859 -4.907,-2.453 -8.829,-7.359 -12.266,-14.719 9.312,-18.14 18.156,-45.609 26.484,-82.406 9.328,-41.703 14.235,-78.984 14.235,-112.344 0,-11.281 -0.5,-21.578 -1.969,-30.422 5.891,-4.406 10.312,-6.375 12.766,-5.875 4.406,9.313 7.843,23.547 9.312,42.188 1.469,17.172 2.453,28.937 2.953,35.312 13.235,108.907 19.61,166.313 19.61,171.703 0,6.375 -3.422,11.282 -10.297,14.719 z m -4.422,-316.422 -1.469,2.453 C 337.863,409.5 335.91,409 334.426,409 c -6.86,0 -11.281,3.438 -13.235,9.813 H 304.02 c 2.937,-2.454 4.406,-5.391 4.406,-8.829 0,-1.953 -0.969,-5.39 -2.453,-9.812 -1.469,-4.406 -2.453,-7.844 -2.453,-10.297 0,-2.453 1.968,-5.891 5.406,-9.812 3.422,-3.922 6.859,-5.891 9.312,-5.891 4.907,0 10.313,3.437 15.703,10.797 5.391,6.859 8.344,12.75 8.344,17.656 0,1.469 -0.5,3.438 -1.484,4.906 z m 277.015,-7.843 c -11.765,12.75 -33.359,33.843 -64.265,62.796 -28.938,26 -49.547,46.11 -62.797,60.329 17.172,9.812 38.266,26 63.297,49.062 30.906,28.453 46.594,50.031 46.594,64.266 0,11.281 -8.329,20.609 -24.532,26.984 -12.25,4.906 -25.5,7.359 -39.234,7.359 -15.703,0 -37.781,-5.406 -65.734,-16.687 -25.516,-9.813 -46.125,-19.625 -61.813,-29.922 -28.953,-19.125 -43.172,-38.266 -43.172,-57.391 0,-1.968 0.969,-4.906 2.453,-8.343 1.469,-3.922 1.953,-6.375 1.953,-6.875 10.313,30.422 33.86,54.953 70.157,73.593 31.89,16.188 64.75,24.532 99.093,24.532 h 21.094 c 7.844,0 14.235,-3.438 19.141,-10.313 -13.75,-28.453 -46.61,-60.828 -99.11,-96.64 -1.468,6.875 -2.453,15.703 -2.453,26 v 15.218 c 0,19.61 -5.39,31.391 -16.672,35.813 -6.375,-37.781 -9.328,-90.266 -9.328,-156.985 0,-58.875 7.86,-91.25 23.063,-97.625 v 132.938 c 0,5.406 1.469,6.375 4.906,3.437 21.094,-18.64 55.438,-52.984 103.016,-103.015 39.25,-41.219 62.312,-64.266 69.672,-69.672 0.968,0.984 1.953,2.953 3.421,5.406 1.485,2.453 2.454,3.922 3.438,4.906 -6.375,17.172 -20.594,37.766 -42.188,60.829 z m 398.594,187.89 c -9.82,7.36 -25.519,11.766 -46.613,13.735 -31.391,2.937 -47.094,4.406 -47.578,4.906 2.453,3.437 3.922,6.375 3.922,9.312 0,6.875 -5.891,12.266 -18.157,16.688 -9.312,3.437 -16.671,4.906 -22.562,4.906 -30.406,0 -64.266,-9.812 -101.063,-28.953 -36.781,-19.609 -67.687,-44.141 -91.734,-73.578 -27.953,-34.344 -41.687,-70.156 -41.687,-107.438 0,-31.89 10.296,-58.875 30.906,-80.937 20.109,-22.078 46.594,-32.875 78.484,-32.875 33.844,0 71.141,9.812 112.828,28.937 44.641,20.61 81.438,47.094 110.375,79.485 34.349,38.265 51.519,78.984 51.519,122.14 0,20.125 -6.38,34.344 -18.64,43.672 z M 967.844,428.625 c -24.531,-25.5 -56.422,-48.078 -95.672,-67.703 -41.688,-21.094 -78.969,-31.391 -111.844,-31.391 -26.984,0 -49.547,9.328 -66.719,28.453 -17.656,18.641 -26.484,41.704 -26.484,69.172 0,32.875 13.734,65.735 41.203,97.625 21.578,25.016 48.563,46.61 81.438,65.25 35.812,20.11 68.672,30.407 98.109,30.407 2.953,0 7.359,-0.485 13.25,-1.469 5.391,-0.985 9.813,-1.469 12.75,-1.469 0,-8.344 -1.953,-13.734 -5.391,-17.172 8.344,-3.922 26.985,-8.828 55.438,-14.719 25.5,-5.39 39.738,-9.312 42.668,-10.796 7.85,-4.907 11.79,-15.688 11.79,-32.375 0,-40.719 -16.69,-78.985 -50.536,-113.813 z m -106.953,45.141 c -3.422,17.172 -6.375,27.953 -9.313,32.859 -4.906,8.344 -13.734,12.266 -26.5,12.266 -13.734,0 -27.953,-5.891 -43.172,-17.657 -16.187,-12.265 -24.031,-25.015 -24.031,-38.265 0,-9.813 3.438,-18.156 9.813,-24.531 6.375,-6.375 14.718,-9.813 24.531,-9.813 15.203,0 30.906,8.344 46.594,24.531 11.296,-15.203 20.609,-25.015 27.968,-28.453 l 3.438,13.735 c -3.438,6.375 -6.375,18.156 -9.328,35.328 z m -68.672,-26 c -12.266,0 -18.156,3.922 -18.156,12.265 0,7.36 5.89,16.188 17.656,26.485 11.297,10.297 20.609,15.703 27.969,15.703 h 20.109 c -8.328,-36.313 -24.531,-54.453 -47.578,-54.453 z m 668.601,274.718 c -1.47,3.438 -1.97,5.391 -1.97,6.86 -2.46,0 -5.89,0.5 -10.8,1.969 -4.91,0.984 -8.33,1.468 -10.78,1.468 -29.44,0 -71.63,-9.812 -126.58,-29.922 -28.94,-10.296 -78,-30.906 -148.14,-61.812 -58.39,-26 -102.05,-43.172 -130.5,-52 4.91,-11.281 10.8,-16.688 17.66,-16.688 l 89.29,35.329 c 173.18,68.187 280.6,104 323.29,107.437 0,1.469 -0.49,3.922 -1.47,7.359 z m -195.75,-84.875 c -5.39,4.422 -9.32,7.36 -12.75,8.829 l -15.71,-244.797 c -2.45,-33.36 4.43,-51.5 20.13,-54.938 4.9,11.281 7.84,41.203 8.83,89.781 1.47,80.454 2.45,121.172 2.93,122.141 2.46,49.063 3.93,71.625 3.93,67.219 0,2.937 -2.46,6.859 -7.36,11.765 z" /><g
         transform="scale(10)"
         id="g16"><text
           id="text20"
           style="font-variant:normal;font-weight:normal;font-size:49px;font-family:Irrep;-inkscape-font-specification:Irrep;writing-mode:lr-tb;fill:#fffdfe;fill-opacity:1;fill-rule:nonzero;stroke:none"
           transform="matrix(1,0,0,-1,6,37.2703)"><tspan
             id="tspan18"
             y="0"
             x="0 23.567604 37.336113 58.406113 103.87752">P!R@T</tspan></text>
</g></g></g></svg>